<svg width="70" height="40" viewBox="0 0 70 40" fill="none" xmlns="http://www.w3.org/2000/svg">
<path d="M7.21763 9.81919L6.80441 9.6523H6.66667L6.94215 10.0974L7.21763 9.81919ZM6.25344 7.121L6.52893 6.84284V6.70376H6.25344L6.1157 6.84284V7.121H6.25344ZM5.15152 1.8637H6.25344L5.97796 1.41864V1.14047L6.1157 0.445063H5.97796L5.84022 0.584145L4.15978 1.27955V1.41864L5.15152 1.8637ZM8.18182 12.0445V11.7385H7.90634L7.60331 12.0445H8.18182ZM12.4242 16.1057L12.6997 15.8275V15.6885L12.562 15.5494L12.259 15.8275V16.1057H12.4242ZM17.3003 33.1572L17.1901 33.2684H17.3003V39.9722H14.4077L0 0.0834492H8.53994L17.3003 24.3394V33.1572ZM12.0386 28.3171V27.733L11.7631 28.0111V28.3171H12.0386ZM12.8926 27.4548L13.0303 27.0376V26.8985H12.5895V27.4548H12.8926ZM15.4821 34.1029C15.6107 34.5665 15.7484 34.7983 15.8953 34.7983C15.8953 34.2791 16.1341 33.8526 16.6116 33.5188V32.9624L15.2066 33.9638V34.1029H15.4821ZM12.314 25.758C12.314 25.5726 12.461 25.4798 12.7548 25.4798V25.3408H12.4518V25.1739L12.5895 24.4784C13.1589 24.293 13.4435 24.1076 13.4435 23.9221V23.7552L12.8926 23.9221H12.7548L12.5895 23.7552C12.5895 23.3843 12.4977 23.1989 12.314 23.1989V22.3644H12.1763L12.0386 23.0598L11.3499 22.9207H11.2121L10.9091 23.1989V23.338L11.2121 24.0612H11.6253L12.314 24.2003V24.4784L11.9008 24.8957L12.0386 25.758H12.314ZM16.6391 29.9861H16.7769V29.7079C16.1157 29.5225 15.7851 29.2443 15.7851 28.8734H15.3719V29.4298L15.7851 29.2907L16.6391 29.9861ZM16.9146 28.4284C16.9146 28.2986 16.7309 28.1595 16.3636 28.0111V28.2893L16.9146 28.4284ZM13.3058 22.0584L13.4435 21.6412H13.3058L13.168 21.5021H12.7548L13.3058 22.0584ZM15.0964 27.733L15.2342 27.5939C15.2342 27.3157 15.3719 27.1766 15.6474 27.1766V26.8707C15.0046 27.2045 14.6832 27.4455 14.6832 27.5939V27.733H15.0964ZM13.8567 20.6398C13.3976 20.3245 13.168 19.9536 13.168 19.5271H12.8926C12.8926 19.898 12.6997 20.0834 12.314 20.0834V20.2225C12.314 20.408 12.8283 20.5471 13.8567 20.6398ZM15.9229 26.5925V26.4534L16.0882 26.3143H15.5096V26.4534L15.9229 26.5925ZM14.2424 31.2378V30.5981C13.5262 30.5981 13.1497 30.3755 13.1129 29.9305H12.9752V30.0974C12.9752 30.5239 13.3976 30.904 14.2424 31.2378ZM15.7576 36.4951L15.6198 35.8275H15.1791L15.3444 36.4951H15.7576ZM10.3857 17.3853V17.1071C10.1102 17.1071 9.97245 17.0051 9.97245 16.8011H9.66942V16.9402L10.3857 17.3853ZM10.4132 20.8345L10.2755 20.1391H9.55923V20.2782C9.9449 20.2782 10.1377 20.4172 10.1377 20.6954V20.9736L9.83471 21.4186V21.5577C10.0367 21.5206 10.2296 21.2796 10.4132 20.8345ZM8.98072 16.8011L8.70523 16.5229H8.56749V16.8011H8.98072ZM10.1102 15.3825V15.1043H9.66942L9.39394 15.3825H10.1102ZM8.70523 14.8261L8.84298 14.2698L8.42975 14.1307L8.12672 14.548L8.70523 14.8261ZM11.5427 18.7204V18.4423H11.1019V18.7204H11.5427ZM20.8815 28.5953L20.6061 29.0403H20.7438L21.157 28.8734L20.8815 28.5953ZM20.0551 31.5716V31.8498L20.1928 31.9889H20.4683V31.8498L20.1928 31.5716H20.0551ZM18.9807 37.7747L19.7796 38.1085L19.9174 38.2476H20.0551L19.9174 37.5522V37.274L20.1928 36.8289H19.0909L18.9807 36.8846V24.6732L27.8237 0.166898H36.3636L21.9835 40H18.9807V37.7747ZM21.5427 26.6481L21.8457 26.9541H22.1212V26.6481H21.5427ZM26.1983 22.5869V22.8651L26.5014 23.1433L26.6391 23.0042V22.8651L26.3636 22.5869H26.1983ZM29.5868 6.62031L29.8623 6.92629C30.6887 6.64812 31.157 6.36069 31.2672 6.06398L31.1295 5.9249C30.6703 6.3885 30.1561 6.62031 29.5868 6.62031ZM25.7025 10.3755V10.6815L25.978 10.9597V10.3755H25.7025ZM26.5289 11.2378V11.7942H26.9697V11.6551L26.832 11.2378H26.5289ZM28.6226 10.8206V10.9597L30.0275 11.9611V11.4047C29.55 11.0709 29.3113 10.6444 29.3113 10.1252C29.1644 10.1252 29.0266 10.357 28.8981 10.8206H28.6226ZM29.0083 1.30737V1.47427C29.3021 1.47427 29.5868 1.65971 29.8623 2.0306H30L30.4132 1.61335L30 0.890125H29.8623C29.55 1.16829 29.2654 1.30737 29.0083 1.30737ZM25.978 12.9346L25.8402 13.7969L26.2534 14.2142V14.4924L25.5647 14.6314H25.1515L24.8485 15.3547V15.4937L25.1515 15.7719H25.2893L25.978 15.6328L26.1157 16.3282H26.2534V15.4937C26.4371 15.4937 26.5289 15.3083 26.5289 14.9374L26.6942 14.7705H26.832L27.3829 14.9374V14.7705C27.3829 14.5851 27.0983 14.3996 26.5289 14.2142L26.3912 13.5188V13.3519H26.6942V13.2128C26.4004 13.2128 26.2534 13.1201 26.2534 12.9346H25.978ZM29.2011 15.6328L28.7879 15.4937V16.0501H29.2011C29.2011 15.6792 29.5317 15.401 30.1928 15.2156V14.9374H30.0551L29.2011 15.6328ZM29.7796 16.6342V16.9124C30.1469 16.764 30.3306 16.6249 30.3306 16.4951L29.7796 16.6342ZM26.6942 17.1905H27.1074L27.2452 17.0515H27.3829L27.2452 16.6342L26.6942 17.1905ZM28.0992 17.1905V17.3296C28.0992 17.478 28.4206 17.7191 29.0634 18.0529V17.7469C28.7879 17.7469 28.6501 17.6078 28.6501 17.3296L28.5124 17.1905H28.0992ZM26.2534 18.4701V18.6092C26.6391 18.6092 26.832 18.7946 26.832 19.1655H27.1074C27.1074 18.739 27.337 18.3681 27.7961 18.0529C26.7677 18.1456 26.2534 18.2847 26.2534 18.4701ZM28.9256 18.4701V18.6092H29.5041L29.3388 18.4701V18.331L28.9256 18.4701ZM32.8375 2.05841C32.8375 2.4293 32.7456 2.61474 32.562 2.61474L32.1212 2.47566L31.9835 2.61474V3.05981C32.2773 3.05981 32.4242 3.19889 32.4242 3.47705H32.562C32.562 2.9949 32.7916 2.75382 33.2507 2.75382H33.6915C33.5078 2.42003 33.2231 2.18822 32.8375 2.05841ZM26.9146 8.59527V8.76217H27.0523C27.0891 8.31711 27.4656 8.09458 28.1818 8.09458V7.4548C27.337 7.7886 26.9146 8.16875 26.9146 8.59527ZM31.157 5.31293H31.4325L31.708 5.03477H31.4325L31.157 5.31293ZM28.7603 8.42837L28.595 9.09597H29.0358L29.1736 8.42837H28.7603ZM31.9835 7.00974V7.2879C31.708 7.2879 31.5702 7.38062 31.5702 7.56606H31.9835L32.1212 7.14882V7.00974H31.9835ZM30.5785 7.87204H31.0193L31.2948 7.56606H30.8815L30.5785 7.87204ZM23.6088 21.7524V21.8915H23.9118C23.9118 21.6875 24.0496 21.5855 24.3251 21.5855V21.3074L23.6088 21.7524ZM23.7741 17.1349V17.274L24.0771 17.7191V17.9972C24.0771 18.2754 23.8843 18.4145 23.4986 18.4145V18.5535H24.2149L24.3526 17.8581C24.169 17.4131 23.9761 17.172 23.7741 17.1349ZM22.5069 21.8915V22.1697H22.6446L22.9201 21.8915H22.5069ZM23.3333 23.3102L23.6088 23.5883H24.0496V23.3102H23.3333ZM22.0661 24.1446L22.3691 24.5619L22.7824 24.4228L22.6446 23.8665L22.0661 24.1446ZM25.0413 19.9722V20.2503H25.4821V19.9722H25.0413Z" fill="white"/>
<path d="M48.1543 0.0834492H56.281C62.6354 0.0834492 66.6483 2.34585 68.3196 6.87065C68.7052 7.77932 68.8981 8.8178 68.8981 9.98609L68.4848 10.1252V10.2643C68.7603 10.2643 68.8981 10.4033 68.8981 10.6815C68.7511 12.3876 68.5124 13.2406 68.1818 13.2406L68.0441 12.3783H67.3554L67.2176 12.5174H67.0799L66.7769 12.2392V11.9611L66.9421 11.822V11.6829L66.3636 11.1266L66.2259 11.2656H65.9504L65.8127 10.6815H65.5372L65.6749 10.8206L65.5372 10.9875V11.2656L65.6749 11.4047V11.5438L65.5372 11.6829C65.9963 11.9425 66.3636 12.4618 66.6391 13.2406V13.5188L66.5014 14.5202L65.8127 14.3811H65.6749L66.2259 15.0765H65.2617L65.3995 16.4951L64.9587 16.6342V17.0515L65.2617 17.4687L63.9945 18.1919C63.517 18.1919 63.2782 17.9509 63.2782 17.4687H62.1763V17.9138C62.6354 17.9138 63.3792 18.2847 64.4077 19.0264C64.4077 19.2304 64.6373 19.3324 65.0964 19.3324C65.7576 19.6662 66.0882 20.0834 66.0882 20.5841C67.2085 20.5841 68.2828 21.9101 69.3113 24.5619L69.1736 24.701C69.5225 24.701 69.7521 25.4057 69.8623 26.815C69.5868 26.815 69.449 26.9077 69.449 27.0932C69.8163 27.2601 70 27.5939 70 28.0946H69.8623L70 28.2337C69.8531 30.4961 69.5317 31.6273 69.0358 31.6273L69.3113 32.1836L69.0358 32.7677L68.0441 32.6287H67.9063L67.4931 32.9068C67.0156 32.777 66.7769 32.6287 66.7769 32.4618V32.3227L66.9421 32.1836V32.0445H66.7769L66.0882 32.3227V32.6287C66.0882 32.8697 66.4187 33.0552 67.0799 33.185V33.6022L66.6391 34.0195H65.9504L65.6749 34.3255V34.6036C65.9871 34.6036 66.5473 34.9745 67.3554 35.7163C65.8678 37.4223 64.6556 38.2754 63.719 38.2754C63.719 38.4237 63.0119 38.7575 61.5978 39.2768C61.3958 39.2768 61.1203 38.9893 60.7714 38.4145L60.3581 38.5535V38.4145L60.1928 37.9972L60.3581 37.58H59.6419L59.2286 37.274V37.4131C59.8347 38.1734 60.1561 38.9337 60.1928 39.694L57.8237 39.8331H57.686C57.5023 39.8331 57.4105 39.5457 57.4105 38.9708C57.135 38.9708 56.9972 38.739 56.9972 38.2754H56.832V39.1099C56.281 39.1841 56.0055 39.286 56.0055 39.4159L56.1432 39.8331L56.0055 39.9722H48.1543L47.8788 39.694V32.7677L48.1543 32.4618H53.7741L54.3251 32.9068H54.4628L54.3251 32.7677V32.6287L55.1515 32.3227H55.5923C55.5923 32.6194 55.6841 32.7677 55.8678 32.7677H56.1432C56.1432 32.3783 56.4738 32.1836 57.135 32.1836L59.2286 31.3491L59.3664 32.3227V32.7677H59.6419C59.6419 33.0088 59.9725 33.287 60.6336 33.6022H61.4601V33.0459C61.1846 33.0459 61.0468 32.9532 61.0468 32.7677V32.3227L61.1846 31.6273H61.4601C61.6437 31.6273 61.7355 31.8127 61.7355 32.1836H61.9008L62.0386 31.4882L60.4959 30.6259L60.1928 30.3477V29.9305C60.1928 29.5781 60.3857 29.1052 60.7714 28.5118V26.815L60.9091 26.6759L60.0551 24.5619L60.6336 24.8401L60.7714 24.701V24.2837H59.7796L59.2286 23.6996L59.3664 23.5605V23.4214H59.2286L58.8154 23.5605C58.393 22.9115 56.8044 22.5869 54.0496 22.5869H48.1543L47.8788 22.2809V15.6328L48.1543 15.3547H55.1515V15.7719H55.4545C55.4545 15.3083 56.1524 15.0765 57.5482 15.0765C59.2195 14.3533 60.0551 13.0366 60.0551 11.1266L60.1928 10.1252H59.9174V8.9847H59.6419L59.7796 9.12378V9.29068L59.6419 9.42976H59.5041C58.6593 8.20584 57.3095 7.59388 55.4545 7.59388H48.1543L47.8788 7.2879V0.361613L48.1543 0.0834492ZM50.9642 0.222531V0.945758L51.6529 0.77886L50.9642 0.222531ZM56.0055 1.363V1.64117L56.5565 1.50209V1.363H56.0055ZM55.4545 1.64117V2.1975H55.73V1.91933L55.4545 1.64117ZM58.8154 2.1975C58.8154 2.38294 58.6685 2.47566 58.3747 2.47566V2.78164H58.8154C58.8154 2.57765 58.9532 2.47566 59.2286 2.47566L58.9532 2.1975H58.8154ZM48.5675 2.33658V2.47566L48.8705 2.78164L49.2837 2.64256V2.47566L48.7328 2.33658H48.5675ZM55.8678 2.78164L55.73 2.92072V3.05981L56.281 3.61613C56.5565 3.43069 56.933 3.33797 57.4105 3.33797C57.4105 3.15253 57.2727 3.05981 56.9972 3.05981L56.281 3.19889L55.8678 2.78164ZM60.7714 3.61613L61.0468 4.17246H61.1846V3.61613H60.7714ZM59.3664 5.17385V5.45202L60.0551 5.31293H60.4959V5.03477H60.0551L59.3664 5.17385ZM61.9008 6.03616V6.73157H62.314V6.59249C62.1671 6.2216 62.0294 6.03616 61.9008 6.03616ZM59.7796 6.45341V6.59249L60.1928 7.87204H60.3581C60.3581 7.48261 60.6336 7.24154 61.1846 7.14882L61.0468 6.73157H60.3581L59.9174 6.45341H59.7796ZM56.281 6.73157L56.5565 7.00974H56.832L56.6942 6.59249L56.281 6.73157ZM63.719 7.00974V7.14882C63.9761 7.14882 64.2516 7.48261 64.5455 8.15021L64.6832 8.28929H64.8209L64.9587 8.15021V8.01113C64.7567 7.43625 64.3894 7.10246 63.8568 7.00974H63.719ZM67.0799 7.2879V7.59388H67.7686V7.2879H67.0799ZM60.4959 8.15021C60.6244 8.52109 60.7622 8.70654 60.9091 8.70654L61.0468 8.56745V8.15021H60.7714L60.6336 8.01113L60.4959 8.15021ZM63.2782 8.56745L63.5813 8.9847L63.1405 10.2643H63.2782L64.9587 9.84701C64.5363 8.99397 63.9761 8.56745 63.2782 8.56745ZM65.5372 8.56745V8.70654L65.8127 8.9847V8.84562L65.5372 8.56745ZM61.0468 8.84562L60.9091 9.98609L61.0468 10.1252H61.5978L61.9008 8.9847H61.7355L61.0468 8.84562ZM65.3995 9.84701L65.5372 10.5424H65.6749V9.84701H65.3995ZM66.9421 10.2643V10.6815H67.2176V9.98609L66.9421 10.2643ZM60.3581 11.822V12.1001L60.9091 11.822V11.6829H60.7714L60.3581 11.822ZM62.0386 11.822L62.1763 12.3783H62.314C62.4426 12.3783 62.5803 12.1929 62.7273 11.822H62.0386ZM63.719 12.3783L63.8568 12.5174V12.6843L63.719 12.8234V12.9624H63.9945L64.27 12.1001L63.719 12.3783ZM67.0799 13.1015V13.5188H66.7769V13.3797L67.0799 13.1015ZM67.3554 13.3797H67.4931L68.1818 13.5188C68.1818 14.0195 67.9982 14.3533 67.6309 14.5202H67.3554V14.3811L67.4931 14.242L67.3554 14.0751V13.3797ZM58.8154 14.6592V14.9374L59.0909 15.2156H59.2286L59.0909 14.6592H58.8154ZM67.0799 14.5202L67.6309 14.9374L66.6391 16.0779H66.5014V15.6328C66.8871 15.1878 67.0799 14.8169 67.0799 14.5202ZM61.0468 15.2156V15.4937L61.3223 15.7719H62.4518V15.4937H63.1405L63.5813 15.7719H63.8568C63.8568 15.4567 63.2048 15.1785 61.9008 14.9374H61.5978L61.0468 15.2156ZM56.281 15.6328L56.1432 15.7719V16.0779C56.7126 16.1892 56.9972 16.3746 56.9972 16.6342H57.135V16.3561C56.933 16.3561 56.832 16.1613 56.832 15.7719L56.281 15.6328ZM60.1928 16.7733V17.1905H60.4959L60.7714 16.9124L60.1928 16.7733ZM56.6942 17.7747L56.4187 18.331H56.9972L57.2727 18.0529V17.9138L56.6942 17.7747ZM61.3223 18.8873H61.4601L61.7355 18.6092H61.5978L61.3223 18.8873ZM59.9174 19.3324C60.101 19.7589 60.2938 19.9907 60.4959 20.0278H60.6336L60.1928 19.0264L59.9174 19.3324ZM56.9972 20.0278V20.306C57.2176 20.306 57.4472 20.4451 57.686 20.7232H57.8237C57.7686 20.4822 57.539 20.2503 57.135 20.0278H56.9972ZM63.416 22.2809C63.8935 22.2809 64.1322 22.5684 64.1322 23.1433H64.5455C64.5455 22.6611 64.6373 22.42 64.8209 22.42L64.9587 22.5869L66.0882 22.2809H66.2259C66.4096 22.2809 66.5014 22.4293 66.5014 22.726C66.6483 22.9114 66.933 23.0042 67.3554 23.0042V23.2823C66.6942 23.9685 66.3636 24.5341 66.3636 24.9791L66.7769 25.3964V25.5355C66.5565 25.5355 66.3269 25.6838 66.0882 25.9805H65.5372V27.0932L64.5455 27.3713L64.27 27.0932L63.9945 27.9555L64.1322 28.5118L63.719 28.9291L64.1322 29.6523V29.9305C64.1322 30.1159 63.7557 30.255 63.0028 30.3477L62.865 30.2086L62.7273 30.3477V30.4868C62.966 30.4868 63.1038 30.6815 63.1405 31.0709L62.865 31.3491C63.4343 31.3491 63.719 31.5809 63.719 32.0445C63.719 32.267 64.1322 32.5081 64.9587 32.7677C64.9954 32.2856 65.0964 32.0445 65.2617 32.0445L65.0964 31.9054V31.7663L65.2617 31.6273V31.4882L65.9504 31.6273H66.0882L64.9587 30.9319L64.8209 31.0709H64.6832L64.5455 30.9319V30.765L64.8209 30.0695L66.7769 29.9305V29.7914L66.5014 29.3741L65.8127 29.5132L65.0964 29.235V28.6509L65.2617 28.5118L65.0964 28.3727V27.8164L65.5372 27.3713H66.5014L66.3636 28.0946L66.5014 28.2337H66.7769L66.9421 27.5382L66.7769 26.5369L66.9421 26.6759H67.0799L67.3554 26.3978V26.2587L67.2176 26.1196V25.9805C67.7686 25.7395 68.0441 25.5447 68.0441 25.3964L67.6309 24.701C67.8512 24.1261 68.0349 23.8387 68.1818 23.8387L68.3196 23.9777V23.8387L67.7686 23.0042L68.0441 22.5869V22.2809L67.9063 22.42H67.7686L67.6309 22.2809L67.4931 22.42H67.3554C67.1717 22.42 67.0799 22.2809 67.0799 22.0028H64.9587C64.775 22.0028 64.6373 21.5763 64.5455 20.7232L65.3995 20.4451L65.5372 20.5841H65.9504V20.4451C65.6015 20.4451 65.225 20.306 64.8209 20.0278C64.0863 20.5471 63.719 20.9736 63.719 21.3074L63.416 22.2809ZM53.4711 21.4465H54.3251L54.0496 21.1683H53.7741L53.4711 21.4465ZM59.9174 22.5869V22.8651H60.3581L60.6336 22.5869H59.9174ZM60.6336 22.8651V23.1433H61.0468V22.8651H60.6336ZM66.3636 23.1433V23.5605L66.7769 23.4214V23.2823L66.3636 23.1433ZM63.5813 25.1182L63.2782 25.6745L63.416 25.8136L63.2782 25.9805H64.1322L63.8568 25.5355L64.4077 25.3964V25.1182H63.5813ZM68.4848 26.2587L68.7603 26.5369L69.0358 26.2587H68.4848ZM68.8981 28.9291V29.0681L69.1736 29.3741V28.9291H68.8981ZM67.0799 29.6523V29.7914L67.4931 30.765L67.3554 31.4882H67.6309C67.6309 31.3027 67.8145 31.21 68.1818 31.21V30.9319C67.9063 30.9319 67.7686 30.6908 67.7686 30.2086L68.0441 29.7914V29.6523H67.0799ZM68.8981 30.4868L69.0358 30.6259H69.449V30.2086H69.1736L68.8981 30.4868ZM59.7796 30.4868H59.9174C59.9174 30.7835 60.2479 31.21 60.9091 31.7663C60.8173 32.1372 60.4867 32.3227 59.9174 32.3227C59.4582 31.7849 59.2286 31.3213 59.2286 30.9319L59.7796 30.4868ZM54.4628 33.6022L55.1515 33.8804L55.3168 33.7413H55.4545L55.1515 33.0459C54.7291 33.2313 54.4995 33.4168 54.4628 33.6022ZM65.3995 33.0459L65.0964 33.6022V33.7413C65.5739 33.63 65.8127 33.491 65.8127 33.3241L65.5372 33.0459H65.3995ZM53.0578 33.3241V33.4631C53.1129 33.7413 53.4894 33.8804 54.1873 33.8804H54.3251C54.2332 33.5095 53.9486 33.3241 53.4711 33.3241H53.0578ZM67.6309 33.4631H67.7686L68.4848 33.7413V34.0195L67.9063 34.6036H67.6309L67.3554 34.3255V33.7413L67.6309 33.4631ZM51.6529 33.8804C51.6529 34.0844 51.3774 34.4182 50.8264 34.8818C51.0101 34.8818 51.3774 35.2156 51.9284 35.8832C51.9835 35.4937 52.1304 35.299 52.3691 35.299L52.2314 35.1599L52.3691 34.4645V34.3255C52.0753 34.3255 51.9284 34.1771 51.9284 33.8804H51.6529ZM56.4187 34.3255L56.281 34.8818C56.7585 34.8818 56.9972 35.0672 56.9972 35.4381H57.135V35.0209L56.9972 34.3255H56.4187ZM63.8568 34.3255V34.4645L64.1322 34.7427H64.27V34.4645L64.1322 34.3255H63.8568ZM54.4628 35.5772V35.7163L54.6006 35.8832V36.0223L54.4628 36.1613H54.6006L54.7383 36.0223L55.4545 36.1613H55.73V35.5772L55.0138 35.4381L54.4628 35.5772ZM51.7906 36.7177V37.1349L52.0937 36.8567L51.9284 36.7177H51.7906ZM57.4105 37.58V38.1363H57.9614V37.58H57.4105ZM53.7741 37.7191V38.2754H53.9118L54.0496 38.1363H54.1873L54.3251 38.2754V38.1363C54.3251 37.9879 54.1414 37.8489 53.7741 37.7191ZM53.9118 38.5535V38.6926L54.0496 39.1099H54.3251L54.4628 38.5535H53.9118ZM52.9201 38.9708L52.7824 39.5549H53.9118V39.2768L53.6088 38.9708H52.9201ZM37.7686 0H46.1983L46.4738 0.278164V3.53268L46.1983 3.83866H45.9229C45.9229 3.59759 45.6841 3.31015 45.2066 2.97636V2.69819H45.0689L44.9311 2.83727H44.7934L45.6474 4.11683L44.9311 4.67316H45.0689L46.3361 3.97775L46.4738 4.11683V21.8359H45.7851L45.0689 21.3908C45.0689 21.7803 44.8852 21.975 44.5179 21.975C44.5179 22.5313 44.4261 22.8095 44.2424 22.8095H43.5262L43.1129 22.5313L42.8375 22.9764L42.9752 23.1154H43.8017V23.3936C44.2424 23.3936 44.6189 23.6254 44.9311 24.089L45.2066 23.6718C44.9311 23.6718 44.7934 23.579 44.7934 23.3936V22.5313H45.6474L45.9229 22.8095V23.5327C45.629 23.5327 45.4821 23.6254 45.4821 23.8108C45.8678 23.8108 46.1983 24.0519 46.4738 24.5341V26.2309L45.4821 27.3435H46.1983V26.7872H46.4738V33.0181C46.2902 33.4075 46.0606 33.6022 45.7851 33.6022L46.0606 33.8804L46.4738 33.7413V37.6912H46.1983C46.1983 37.2276 46.1065 36.9958 45.9229 36.9958L45.0689 36.5786V36.7177C45.0689 36.866 45.3535 37.0051 45.9229 37.1349L46.0606 37.8581V37.9972L45.6474 38.4145H45.3444L44.5179 37.6912V37.8581L45.2066 38.6926L45.0689 39.1099H45.2066C45.7759 39.1099 46.0606 38.9244 46.0606 38.5535H46.4738V39.694L46.1983 39.9722H45.3444L44.9311 39.694L44.6556 39.9722H43.6639C43.4803 39.9722 43.3884 39.8331 43.3884 39.5549H42.5344C42.5344 39.8331 42.4426 39.9722 42.259 39.9722H41.5702L40.7163 39.2768H40.5785V39.9722H38.8981V39.5549H38.0441V39.694H38.3471V39.9722H37.7686L37.4931 39.694V39.5549L37.7686 39.1099V38.4145H37.4931V37.1349L38.0441 36.3004C38.0441 36.0037 37.9063 35.8554 37.6309 35.8554L37.4931 35.7163V34.7149L37.7686 34.4367H38.3471L38.7603 34.7149H39.1736L39.0358 34.5758L38.3471 34.2976L38.0441 33.4631H37.7686V34.1586H37.4931V28.7622L37.7686 28.484H37.9063L38.7603 28.7622V28.9291L39.449 28.7622H40.5785C40.5785 28.5767 40.3949 28.484 40.0275 28.484V28.2058H39.0358L38.7603 27.9277L38.8981 27.3435C38.5308 27.3435 38.3471 26.8243 38.3471 25.7858L38.1818 25.9527H37.7686L37.4931 25.6467V24.5341H37.9063L37.7686 24.3672V24.2281L37.9063 23.8108L37.4931 23.1154V0.278164L37.7686 0ZM40.303 0.417246L40.0275 0.862309H40.1653L40.5785 0.69541L40.303 0.417246ZM41.8457 1.6968V1.97497L41.9835 2.11405H42.259V1.97497L41.9835 1.6968H41.8457ZM41.8457 3.97775V4.11683L43.5262 4.81224L43.6639 4.95132H43.8017L43.6639 4.25591V3.97775L43.9394 3.53268H42.8375L41.8457 3.97775ZM43.9394 4.95132L44.2424 5.2573H44.5179V4.95132H43.9394ZM38.1818 5.2573V5.53547L38.4848 5.81363L38.6226 5.67455V5.53547L38.3471 5.2573H38.1818ZM45.3444 16.4395V17.7191H45.6474L45.7851 17.3018L45.4821 16.4395H45.3444ZM45.9229 19.8331L45.6474 20.5563V20.6954L46.1983 20.5563L46.0606 19.8331H45.9229ZM38.6226 20.6954V21.3908H38.8981V20.6954H38.6226ZM42.8375 21.3908L43.1129 21.6968C43.9394 21.4186 44.4077 21.1312 44.5179 20.8345L44.3802 20.6954C43.921 21.159 43.4068 21.3908 42.8375 21.3908ZM40.303 21.3908V21.6968L40.5785 21.975V21.3908H40.303ZM37.7686 21.975L38.4848 22.5313H38.8981C38.8981 22.2902 38.5216 22.1048 37.7686 21.975ZM41.1295 22.2531V22.8095H41.5702V22.6704L41.4325 22.2531H41.1295ZM46.4738 22.114V23.5327H46.1983V23.2545L46.0606 22.2531L46.1983 22.114H46.4738ZM41.708 24.2281V24.3672L43.1129 25.3686V24.8122C42.6354 24.4784 42.3967 24.0519 42.3967 23.5327C42.2498 23.5327 42.112 23.7645 41.9835 24.2281H41.708ZM38.1818 24.3672V24.5341C38.4757 24.5341 38.7603 24.7195 39.0358 25.0904H39.1736L39.5868 24.6732L39.1736 23.9499H39.0358C38.7236 24.2281 38.4389 24.3672 38.1818 24.3672ZM40.5785 23.9499L40.4408 24.8122L40.854 25.2295V25.5077L40.1653 25.6467H39.7521L39.449 26.37V26.509L39.7521 26.7872H39.8898L40.5785 26.6481L40.7163 27.3435H40.854V26.509C41.0377 26.509 41.1295 26.3236 41.1295 25.9527L41.2948 25.7858H41.4325L41.9835 25.9527V25.7858C41.9835 25.6004 41.6988 25.4149 41.1295 25.2295L40.9917 24.5341V24.3672H41.2948V24.2281C41.0009 24.2281 40.854 24.1354 40.854 23.9499H40.5785ZM45.3444 24.8122V25.0904H46.1983V24.6732L45.3444 24.8122ZM43.8017 26.6481L43.3884 26.509V27.0654H43.8017C43.8017 26.6945 44.1322 26.4163 44.7934 26.2309V25.9527H44.6556L43.8017 26.6481ZM37.6309 26.37C38.1084 26.4256 38.3471 26.7038 38.3471 27.2045C37.9614 27.4084 37.7686 27.6495 37.7686 27.9277H37.4931V26.6481L37.6309 26.509V26.37ZM44.3802 27.6495V27.9277C44.7475 27.7793 44.9311 27.6402 44.9311 27.5104L44.3802 27.6495ZM41.2948 28.2058H41.708L41.8457 28.0668H41.9835L41.8457 27.6495L41.2948 28.2058ZM42.6997 28.2058V28.3449C42.6997 28.4933 43.0211 28.7344 43.6639 29.0681V28.7622C43.3884 28.7622 43.2507 28.6231 43.2507 28.3449L43.1129 28.2058H42.6997ZM40.854 29.4854V29.6245C41.2397 29.6245 41.4325 29.8099 41.4325 30.1808H41.708C41.708 29.7543 41.9376 29.3834 42.3967 29.0681C41.3682 29.1609 40.854 29.3 40.854 29.4854ZM43.5262 29.4854V29.6245H44.1047L43.9394 29.4854V29.3463L43.5262 29.4854ZM38.8981 29.4854C38.8981 29.8563 38.8062 30.0417 38.6226 30.0417L38.1818 29.9026L38.0441 30.0417V30.4868C38.3379 30.4868 38.4848 30.6259 38.4848 30.904H38.6226C38.6226 30.4219 38.8522 30.1808 39.3113 30.1808H39.7521C39.5684 29.847 39.2837 29.6152 38.8981 29.4854ZM43.8017 31.4604V31.5994H43.9394C43.9761 31.2286 44.3526 31.0431 45.0689 31.0431V30.4868C44.2241 30.765 43.8017 31.0895 43.8017 31.4604ZM40.0275 31.0431H40.303L40.5785 30.765H40.303L40.0275 31.0431ZM45.6474 31.3213L45.4821 31.9054H45.9229L46.0606 31.3213H45.6474ZM40.854 32.7399V33.0181C40.5785 33.0181 40.4408 33.1108 40.4408 33.2962H40.854L40.9917 32.879V32.7399H40.854ZM39.449 33.6022H39.8898L40.1653 33.2962H39.7521L39.449 33.6022ZM40.9917 36.3004V36.4395H41.2948C41.2948 36.2355 41.4325 36.1335 41.708 36.1335V35.8554L40.9917 36.3004ZM42.5344 35.8554V35.9944L42.8375 36.4395V36.7177C42.8375 36.9958 42.6446 37.1349 42.259 37.1349V37.274H42.9752L43.1129 36.5786C42.9293 36.1335 42.7365 35.8924 42.5344 35.8554ZM39.8898 36.4395V36.7177H40.0275L40.303 36.4395H39.8898ZM40.7163 37.8581L40.9917 38.1363H41.4325V37.8581H40.7163ZM39.449 38.6926L39.7521 39.1099L40.1653 38.9708L40.0275 38.4145L39.449 38.6926ZM43.8017 38.6926V38.9708H44.2424V38.6926H43.8017ZM46.4738 22.114V23.5327H46.1983V23.2545L46.0606 22.2531L46.1983 22.114H46.4738ZM37.6309 26.37C38.1084 26.4256 38.3471 26.7038 38.3471 27.2045C37.9614 27.4084 37.7686 27.6495 37.7686 27.9277H37.4931V26.6481L37.6309 26.509V26.37Z" fill="white"/>
</svg>
